<svg clip-rule="evenodd" fill-rule="evenodd" stroke-linejoin="round" stroke-miterlimit="2" viewBox="0 0 217 149" xmlns="http://www.w3.org/2000/svg"><g fill-rule="nonzero" transform="matrix(2.39304 0 0 2.39304 -804.090156 -104.602171)"><path d="m378.457 70.922-.004-27.176 22.969 8.34v10.124h2.246v-10.183l22.828-8.316v56.937l-2.3-2.3v-51.352l-18.227 6.64v15.235h-6.848v-15.176l-18.367-6.668.004 23.703z" fill="#8a8a8c"/><g fill="#f8971c"><path d="m412.945 105.605h12.743c-9.454-8.753-18.165-21.222-3.989-23.562l-1.566-.563c-14.649 1.993-12.899 13.11-7.188 24.125m-58.527-14.304h13.066c7.442-11.153 21.098-13.91 38.278-15.086l-1.559-.567c-20.976.254-41.57 5.016-49.785 15.653"/><path d="m373.5 96.047h13.129c1.883-10.824 10.586-16.23 24.488-17.871l-1.547-.559c-18.144 1.59-32.925 6.836-36.07 18.43"/><path d="m392.95 100.707 12.335.098c-3.312-9.801-2.375-19.086 11.11-20.72l-1.579-.573c-14.68 1.398-22.64 10.031-21.867 21.195m-56.937-14.195c8.222-6.934 33.71-12.95 62.62-12.95l1.735.66c-27.765.301-40.61 5.536-51.297 12.356z"/></g></g></svg>